# AST/ASF file generated using VICON BodyLanguage
# -----------------------------------------------
:version 1.10
:name VICON
:units
  mass 1.0
  length 0.45
  angle deg
:documentation
   .ast/.asf automatically generated from VICON data using
   VICON BodyBuilder and BodyLanguage model FoxedUp or BRILLIANT.MOD
:root
   order TX TY TZ RX RY RZ
   axis XYZ
   position 0 0 0  
   orientation 0 0 0 
:bonedata
  begin
     id 1 
     name lhipjoint
     direction 0.547975 -0.797114 0.253638 
     length 2.36201 
     axis 0 0 0  XYZ
  end
  begin
     id 2 
     name lfemur
     direction 0.34202 -0.939693 0  
     length 7.69075  
     axis 0 0 20  XYZ
    dof rx ry rz
    limits (-160.0 20.0)
           (-70.0 70.0)
           (-60.0 70.0)
  end
  begin
     id 3 
     name ltibia
     direction 0.34202 -0.939693 0   
     length 7.91399   
     axis 0 0 20   XYZ
    dof rx
    limits (-10.0 170.0)
  end
  begin
     id 4 
     name lfoot
     direction 0.0705293 -0.193778 0.978507   
     length 2.13618   
     axis -90 7.62852e-016 20   XYZ
    dof rx rz
    limits (-45.0 90.0)
           (-70.0 20.0)
  end
  begin
     id 5 
     name ltoes
     direction 1.53592e-011 -4.21925e-011 1   
     length 1.07518   
     axis -90 7.62852e-016 20   XYZ
    dof rx
    limits (-90.0 20.0)
  end
  begin
     id 6 
     name rhipjoint
     direction -0.57 -0.782963 0.249136   
     length 2.4047  
     axis 0 0 0  XYZ 
  end
  begin
     id 7 
     name rfemur
     direction -0.34202 -0.939693 0   
     length 7.51486   
     axis 0 0 -20   XYZ
    dof rx ry rz
    limits (-160.0 20.0)
           (-70.0 70.0)
           (-70.0 60.0)
  end
  begin
     id 8 
     name rtibia
     direction -0.34202 -0.939693 0   
     length 8.08317   
     axis 0 0 -20   XYZ
    dof rx
    limits (-10.0 170.0)
 end
 begin
     id 9 
     name rfoot
     direction -0.104954 -0.281256 0.953876   
     length 2.30343  
     axis -90 -7.62852e-016 -20   XYZ
    dof rx rz
    limits (-45.0 90.0)
           (-20.0 70.0)
  end
  begin
     id 10 
     name rtoes
     direction -1.53556e-011 -4.21922e-011 1   
     length 1.14803   
     axis -90 -7.62852e-016 -20   XYZ
    dof rx
    limits (-90.0 20.0)
  end
  begin
     id 11 
     name lowerback
     direction -0.0152855 0.99353 -0.11254   
     length 2.05311   
     axis 0 0 0   XYZ
    dof rx ry rz
    limits (-20.0 45.0)
           (-30.0 30.0)
           (-30.0 30.0)
  end
  begin
     id 12 
     name upperback
     direction -0.00157509 0.999443 -0.033332   
     length 2.06353   
     axis 0 0 0   XYZ
    dof rx ry rz
    limits (-20.0 45.0)
           (-30.0 30.0)
           (-30.0 30.0)
  end
  begin
     id 13 
     name thorax
     direction 0.00577788 0.999804 0.0189484   
     length 2.08472   
     axis 0 0 0   XYZ
    dof rx ry rz
    limits (-20.0 45.0)
           (-30.0 30.0)
           (-30.0 30.0)
  end
  begin
     id 14 
     name lowerneck
     direction -1.09301e-005 0.994719 0.10264   
     length 1.76249   
     axis 0 0 0   XYZ
    dof rx ry rz
    limits (-20.0 45.0)
           (-30.0 30.0)
           (-30.0 30.0)
  end
  begin
     id 15 
     name upperneck
     direction 0.0495018 0.988526 -0.142706   
     length 1.77897   
     axis 0 0 0   XYZ
    dof rx ry rz
    limits (-20.0 45.0)
           (-30.0 30.0)
           (-30.0 30.0)
  end
  begin
     id 16
     name head
     direction 0.0142736 0.998114 -0.0597101  
     length 1.78934  
     axis 0 0 0   XYZ
    dof rx ry rz
    limits (-20.0 45.0)
           (-30.0 30.0)
           (-30.0 30.0)
  end
  begin
     id 17 
     name lclavicle
     direction 0.918111 0.396107 -0.0130883  
     length 3.37276  
     axis 0 0 0   XYZ
    dof ry rz
    limits (-20.0 10.0)
           (0.0 20.0)
  end
  begin
     id 18 
     name lhumerus
     direction 1 -4.48975e-011 -3.26108e-027   
     length 5.34298   
     axis 180 -30 -90   XYZ
    dof rx ry rz
    limits (-60.0 90.0)
           (-90.0 90.0)
           (-90.0 90.0)
  end
  begin
     id 19
     name lradius
     direction 1 -4.48964e-011 -8.84413e-028   
     length 3.67262   
     axis 180 -30 -90   XYZ
    dof rx
    limits (-10.0 170.0)
  end
  begin
     id 20
     name lwrist
     direction 1 -4.48991e-011 -1.24264e-027   
     length 1.83631   
     axis -2.17013e-015 90 90   XYZ
    dof ry
    limits (-180.0 0.0)
 end
  begin
     id 21 
     name lhand
     direction 1 -4.48855e-011 -2.48528e-027   
     length 0.599298   
     axis 1.58582e-015 90 90   XYZ
    dof rx rz
    limits (-90.0 90.0)
           (-45.0 45.0)
  end
  begin
     id 22 
     name lfingers
     direction 1 -4.48811e-011 -4.97056e-027   
     length 0.48317   
     axis 3.17164e-015 90 90   XYZ
    dof rx
    limits (0.0 90.0)
  end
  begin
     id 23
     name lthumb
     direction 0.707107 -6.34882e-011 0.707107   
     length 0.693738   
     axis -90 45 2.85299e-015   XYZ
    dof rx rz
    limits (-45.0 45.0)
           (-45.0 45.0)
  end
  begin
     id 24 
     name rclavicle
     direction -0.920511 0.384752 -0.0680135   
     length 3.43787  
     axis 0 0 0   XYZ 
    dof ry rz
    limits (-10.0 20.0)
           (-20.0 0.0)
  end
  begin
     id 25 
     name rhumerus
     direction -0.999976 -0.00330524 0.00603274  
     length 5.5498   
     axis 180 30 90   XYZ
    dof rx ry rz
    limits (-90.0 60.0)
           (-90.0 90.0)
           (-90.0 90.0)
  end
  begin
     id 26 
     name rradius
     direction -1 -4.48967e-011 8.62438e-027   
     length 3.69401   
     axis 180 30 90   XYZ
    dof rx
    limits (-10.0 170.0)
  end
  begin
     id 27 
     name rwrist
     direction -1 -4.4897e-011 9.54866e-027   
     length 1.84701   
     axis -7.69462e-015 -90 -90   XYZ
    dof ry
    limits (-180.0 0.0)
  end
  begin
     id 28
     name rhand
     direction -1 -4.48982e-011 1.90973e-026   
     length 0.638113   
     axis -1.21857e-014 -90 -90   XYZ
    dof rx rz
    limits (-90.0 90.0)
           (-45.0 45.0)
  end
  begin
     id 29
     name rfingers
     direction -1 -4.48936e-011 3.81946e-026   
     length 0.514463   
     axis -2.43714e-014 -90 -90   XYZ
    dof rx
    limits (0.0 90.0)
  end
  begin
     id 30
     name rthumb
     direction -0.707107 -6.34942e-011 0.707107   
     length 0.738669   
     axis -90 -45 -2.85299e-015   XYZ
    dof rx rz
    limits (-45.0 45.0)
           (-45.0 45.0)
  end
:hierarchy
  begin
    root lhipjoint rhipjoint lowerback
    lhipjoint lfemur
    lfemur ltibia
    ltibia lfoot
    lfoot ltoes
    rhipjoint rfemur
    rfemur rtibia
    rtibia rfoot
    rfoot rtoes
    lowerback upperback
    upperback thorax
    thorax lowerneck lclavicle rclavicle
    lowerneck upperneck
    upperneck head
    lclavicle lhumerus
    lhumerus lradius
    lradius lwrist
    lwrist lhand lthumb
    lhand lfingers
    rclavicle rhumerus
    rhumerus rradius
    rradius rwrist
    rwrist rhand rthumb
    rhand rfingers
  end

#!OML:ASF F:\twosubjects\two\Thursday\Session 1\Rory.ASF
:FULLY-SPECIFIED
:DEGREES
65
root 7.50271 10.8027 7.18299 172.813 -5.80776 -179.309
lowerback 29.8839 0.968477 0.864407
upperback 9.57723 -1.07698 -1.15775
thorax -5.66072 -1.52905 -1.32015
lowerneck -11.9577 -4.79516 -4.70551
upperneck 1.52749 -6.24703 6.88058
head 3.05082 -2.97353 2.71933
rclavicle 1.19271e-015 7.15625e-015
rhumerus 22.2123 15.4492 -72.7025
rradius 74.9042
rwrist 22.6823
rhand -13.7144 21.2399
rfingers 7.12502
rthumb 12.4045 -8.372
lclavicle 1.19271e-015 7.15625e-015
lhumerus 37.753 -25.4145 63.5814
lradius 62.5267
lwrist -15.9688
lhand -10.349 37.7184
lfingers 7.12502
lthumb 15.6476 67.1056
rfemur -65.7134 -19.2859 -6.61751
rtibia 109.419
rfoot -22.7065 -3.46261
rtoes -23.8392
lfemur -62.3954 26.7931 5.84664
ltibia 113.162
lfoot -28.2316 -5.06963
ltoes -20.6104
66
root 7.50285 10.8073 7.18371 172.752 -5.81086 -179.284
lowerback 29.6973 1.06569 1.09078
upperback 9.65635 -0.902782 -1.25871
thorax -5.47947 -1.44375 -1.62521
lowerneck -11.8739 -4.86854 -4.45838
upperneck 1.83478 -6.38743 6.91232
head 3.14078 -3.03194 2.67535
rclavicle 1.2921e-014 6.36111e-015
rhumerus 22.5359 15.2286 -71.7655
rradius 74.7094
rwrist 21.9172
rhand -13.1038 21.3648
rfingers 7.12502
rthumb 12.9931 -8.21059
lclavicle 1.2921e-014 6.36111e-015
lhumerus 37.9697 -25.9958 63.4115
lradius 62.6729
lwrist -15.6637
lhand -9.07017 36.6553
lfingers 7.12502
lthumb 16.8789 65.9418
rfemur -65.6175 -19.2145 -6.64066
rtibia 109.403
rfoot -22.7407 -3.35909
rtoes -24.9033
lfemur -62.307 26.6938 5.82677
ltibia 113.021
lfoot -28.1866 -4.67106
ltoes -21.5963
67
root 7.50603 10.8143 7.18451 172.555 -5.76472 -179.218
lowerback 29.6501 1.07042 1.2163
upperback 9.70884 -0.879962 -1.32276
thorax -5.3976 -1.43577 -1.77751
lowerneck -11.8589 -4.87247 -4.41317
upperneck 2.53755 -6.40649 6.89327
head 3.3814 -3.02133 2.66045
rclavicle -2.10712e-014 -2.38542e-015
rhumerus 23.2322 15.3975 -70.814
rradius 74.3176
rwrist 20.8795
rhand -12.427 21.339
rfingers 7.12502
rthumb 13.6455 -8.19367
lclavicle -2.10712e-014 -2.38542e-015
lhumerus 39.3042 -26.4956 61.8886
lradius 61.3655
lwrist -14.9268
lhand -9.74748 40.2572
lfingers 7.12502
lthumb 16.2268 69.5981
rfemur -65.3707 -19.1185 -6.58262
rtibia 109.356
rfoot -22.735 -3.5
rtoes -24.695
lfemur -61.9734 26.6792 6.065
ltibia 112.953
lfoot -28.222 -4.86626
ltoes -21.33
68
root 7.51108 10.8262 7.18587 172.398 -5.82995 -179.534
lowerback 29.5019 1.10097 0.880881
upperback 9.70938 -0.93817 -1.44015
thorax -5.33399 -1.46284 -1.69647
lowerneck -11.5033 -4.84593 -4.41389
upperneck 3.58535 -6.40629 7.08508
head 3.30288 -2.97817 2.45719
rclavicle 6.75868e-015 4.37326e-015
rhumerus 24.0625 15.6318 -69.7935
rradius 73.9331
rwrist 19.713
rhand -11.5718 21.2393
rfingers 7.12502
rthumb 14.4696 -8.23622
lclavicle 6.75868e-015 4.37326e-015
lhumerus 39.801 -26.5484 61.0012
lradius 60.6529
lwrist -14.544
lhand -10.3933 38.8724
lfingers 7.12502
lthumb 15.6049 68.263
rfemur -65.1551 -19.3124 -6.96182
rtibia 109.291
rfoot -22.7436 -3.38084
rtoes -24.004
lfemur -61.6506 26.463 5.80384
ltibia 112.845
lfoot -28.148 -4.95212
ltoes -20.4714
69
root 7.51673 10.8352 7.18774 172.327 -6.00922 -180.079
lowerback 29.3683 1.1747 0.422568
upperback 9.67764 -0.973084 -1.65289
thorax -5.31374 -1.47528 -1.65737
lowerneck -11.0935 -4.83164 -4.35078
upperneck 4.38253 -6.4263 7.05943
head 3.4772 -2.97332 2.43885
rclavicle 7.15625e-015 1.19271e-015
rhumerus 24.9695 15.3545 -68.8175
rradius 73.5959
rwrist 18.5323
rhand -9.56267 21.5384
rfingers 7.12502
rthumb 16.4047 -7.78792
lclavicle 7.15625e-015 1.19271e-015
lhumerus 39.3559 -26.5009 61.1714
lradius 60.4673
lwrist -14.5609
lhand -10.3128 36.5425
lfingers 7.12502
lthumb 15.6824 65.9269
rfemur -64.979 -19.6375 -7.66549
rtibia 109.246
rfoot -22.7503 -3.0713
rtoes -25.4035
lfemur -61.4731 26.0477 5.13556
ltibia 112.718
lfoot -28.0965 -4.58087
ltoes -20.3759
70
root 7.52114 10.8331 7.1904 172.173 -6.18368 -179.999
lowerback 29.3018 1.22676 0.561001
upperback 9.90299 -0.921307 -1.64041
thorax -5.02673 -1.47034 -1.74407
lowerneck -11.7186 -4.8755 -4.11505
upperneck 5.30609 -6.52301 6.84564
head 3.8492 -2.99508 2.30743
rclavicle -5.76476e-015 1.51076e-014
rhumerus 26.5505 14.3968 -67.7051
rradius 73.2626
rwrist 16.8678
rhand -6.25863 21.5686
rfingers 7.12502
rthumb 19.5837 -7.46504
lclavicle -5.76476e-015 1.51076e-014
lhumerus 40.7867 -26.8293 59.6584
lradius 60.093
lwrist -12.853
lhand -9.97079 37.1425
lfingers 7.12502
lthumb 16.0118 66.5008
rfemur -64.7214 -19.7632 -7.69268
rtibia 109.246
rfoot -22.7891 -3.05335
rtoes -27.0557
lfemur -61.438 25.8165 5.22355
ltibia 112.69
lfoot -28.1614 -4.56786
ltoes -20.871
71
root 7.52581 10.8286 7.19387 171.99 -6.15921 -179.046
lowerback 29.0118 1.0857 1.23129
upperback 9.88299 -0.845528 -1.20366
thorax -4.90169 -1.41676 -1.67645
lowerneck -10.7754 -4.79804 -4.51164
upperneck 5.61198 -6.37968 6.75178
head 3.79034 -2.94284 2.3699
rclavicle -3.85642e-014 -1.11319e-014
rhumerus 27.9137 13.767 -66.6857
rradius 72.921
rwrist 14.5566
rhand -3.00094 21.2522
rfingers 7.12502
rthumb 22.7131 -7.43098
lclavicle -3.85642e-014 -1.11319e-014
lhumerus 41.3767 -26.9017 58.7031
lradius 59.7203
lwrist -11.1313
lhand -8.66573 37.6865
lfingers 7.12502
lthumb 17.2682 66.9393
rfemur -64.5681 -19.4592 -6.63273
rtibia 109.261
rfoot -22.8268 -3.21684
rtoes -25.8683
lfemur -61.5183 26.0901 6.37655
ltibia 112.678
lfoot -28.2331 -4.76009
ltoes -22.1477
72
root 7.53202 10.8248 7.19937 171.795 -6.08802 -178.233
lowerback 28.7219 1.10239 1.94442
upperback 10.1914 -0.67844 -0.89692
thorax -4.40251 -1.3525 -1.81031
lowerneck -11.1841 -4.90828 -4.48272
upperneck 6.39257 -6.52887 6.51776
head 4.09385 -3.00504 2.26718
rclavicle 0 -3.97569e-015
rhumerus 29.7598 12.187 -66.159
rradius 72.5641
rwrist 12.2093
rhand -0.281529 21.2658
rfingers 7.12502
rthumb 25.3207 -7.07346
lclavicle 0 -3.97569e-015
lhumerus 42.7044 -26.5553 57.766
lradius 59.1691
lwrist -10.2872
lhand -5.62294 35.622
lfingers 7.12502
lthumb 20.1948 64.5922
rfemur -64.4364 -19.141 -5.69977
rtibia 109.267
rfoot -22.8205 -3.33521
rtoes -24.4798
lfemur -61.4938 26.3435 7.40791
ltibia 112.625
lfoot -28.2069 -4.87599
ltoes -22.9796
73
root 7.5372 10.8225 7.20469 171.593 -6.09086 -178.182
lowerback 28.6176 1.13296 1.8892
upperback 10.2759 -0.667515 -0.787452
thorax -4.25813 -1.35658 -1.66382
lowerneck -10.649 -4.88484 -4.56664
upperneck 6.80859 -6.49348 6.26669
head 4.12511 -3.00383 2.21428
rclavicle 2.32578e-014 -1.78906e-014
rhumerus 31.2418 10.8407 -66.0319
rradius 72.3418
rwrist 9.48741
rhand 2.29327 21.8036
rfingers 7.12502
rthumb 27.785 -6.16263
lclavicle 2.32578e-014 -1.78906e-014
lhumerus 45.6611 -26.6245 54.7787
lradius 58.4729
lwrist -7.29905
lhand -3.88061 34.912
lfingers 7.12502
lthumb 21.8686 63.6962
rfemur -64.256 -19.0672 -5.65965
rtibia 109.269
rfoot -22.7811 -3.54453
rtoes -25.1624
lfemur -61.2444 26.2798 7.58694
ltibia 112.557
lfoot -28.1721 -4.99233
ltoes -22.6191
74
root 7.54468 10.8251 7.20968 171.305 -5.89694 -178.452
lowerback 28.522 1.37829 1.42523
upperback 10.6089 -0.578751 -0.719171
thorax -3.84108 -1.36169 -1.35509
lowerneck -10.0611 -4.7881 -4.67245
upperneck 6.4869 -6.34121 6.16705
head 3.92222 -2.94952 2.22749
rclavicle 1.43125e-014 -5.96354e-015
rhumerus 33.2713 9.20873 -65.8983
rradius 71.9858
rwrist 5.61801
rhand 4.59807 22.1065
rfingers 7.12502
rthumb 29.9865 -5.48324
lclavicle 1.43125e-014 -5.96354e-015
lhumerus 43.8673 -24.6796 57.9998
lradius 58.4771
lwrist -8.01065
lhand -1.38722 32.2972
lfingers 7.12502
lthumb 24.261 60.7823
rfemur -64.0721 -18.808 -5.92961
rtibia 109.259
rfoot -22.7662 -3.72564
rtoes -25.8308
lfemur -60.6372 26.3162 7.54959
ltibia 112.47
lfoot -28.2541 -5.04065
ltoes -22.1514
75
root 7.55399 10.826 7.21671 171.009 -5.66488 -178.797
lowerback 28.5178 1.6095 0.939073
upperback 10.9257 -0.524011 -0.749668
thorax -3.48814 -1.38768 -1.13064
lowerneck -9.3369 -4.64043 -4.8172
upperneck 5.98249 -6.13568 6.26723
head 3.64702 -2.86509 2.31525
rclavicle 7.35503e-015 -7.95139e-015
rhumerus 35.2946 7.60565 -66.0298
rradius 71.9058
rwrist 0.666672
rhand 5.99422 20.6279
rfingers 7.12502
rthumb 31.3178 -6.71252
lclavicle 7.35503e-015 -7.95139e-015
lhumerus 46.8294 -24.4129 54.336
lradius 58.1125
lwrist -2.08917
lhand 0.749172 32.662
lfingers 7.12502
lthumb 26.3078 60.8577
rfemur -63.9214 -18.5232 -6.27625
rtibia 109.254
rfoot -22.7328 -3.69861
rtoes -26.6897
lfemur -60.0444 26.434 7.43504
ltibia 112.399
lfoot -28.2859 -4.99675
ltoes -22.0372
